Coordinates
version=1
nRows=38
nColumns=12
inDegrees=yes

Units are S.I. units (second, meters, Newtons, ...)
Angles are in degrees

endheader
time	SC_y	SC_z	SC_x	AC_y	AC_z	AC_x	GH_y	GH_z	GH_yy	EL_x	PS_y
       0.0              -25.29           29.8          32.66          61.22         -14.56          8.519         -99.79          20.47         -144.4          20.28          70.75
   0.02365              -25.29           29.8          32.67          61.22         -14.56          8.521         -99.77          20.48         -144.4          20.28          70.76
   0.04729              -25.29           29.8          32.67          61.22         -14.56          8.522         -99.75          20.49         -144.4          20.29          70.78
   0.07094              -25.29          29.79          32.67          61.22         -14.56          8.523         -99.72           20.5         -144.4           20.3          70.79
   0.09458              -25.29          29.79          32.68          61.22         -14.56          8.525         -99.69          20.51         -144.4          20.31          70.81
    0.1182              -25.29          29.79          32.68          61.22         -14.55          8.527         -99.66          20.52         -144.4          20.32          70.82
    0.1419               -25.3          29.78          32.68          61.23         -14.55          8.529         -99.63          20.53         -144.4          20.33          70.84
    0.1655               -25.3          29.78          32.69          61.23         -14.55           8.53          -99.6          20.55         -144.3          20.34          70.86
    0.1892               -25.3          29.77          32.69          61.23         -14.55          8.533         -99.56          20.56         -144.3          20.35          70.88
    0.2128               -25.3          29.77           32.7          61.23         -14.55          8.535         -99.52          20.57         -144.3          20.36           70.9
    0.2365               -25.3          29.76           32.7          61.23         -14.55          8.537         -99.48          20.59         -144.3          20.38          70.92
    0.2601               -25.3          29.76          32.71          61.24         -14.54           8.54         -99.43          20.61         -144.3          20.39          70.95
    0.2838               -25.3          29.75          32.71          61.24         -14.54          8.543         -99.39          20.62         -144.2           20.4          70.98
    0.3074               -25.3          29.75          32.72          61.24         -14.54          8.546         -99.33          20.64         -144.2          20.42           71.0
     0.331               -25.3          29.74          32.73          61.24         -14.54          8.549         -99.28          20.66         -144.2          20.44          71.04
    0.3547               -25.3          29.73          32.74          61.25         -14.53          8.552         -99.21          20.69         -144.1          20.46          71.07
    0.3783              -25.31          29.72          32.74          61.25         -14.53          8.556         -99.15          20.71         -144.1          20.48          71.11
     0.402              -25.31          29.72          32.75          61.25         -14.53           8.56         -99.08          20.74         -144.1           20.5          71.15
    0.4256              -25.31          29.71          32.76          61.26         -14.52          8.565          -99.0          20.77         -144.0          20.53          71.19
    0.4493              -25.31          29.69          32.78          61.26         -14.52           8.57         -98.91           20.8         -144.0          20.55          71.24
    0.4729              -25.31          29.68          32.79          61.27         -14.51          8.575         -98.81          20.84         -143.9          20.58          71.29
    0.4966              -25.32          29.67           32.8          61.27         -14.51          8.581         -98.71          20.88         -143.9          20.62          71.35
    0.5202              -25.32          29.66          32.82          61.28          -14.5          8.588         -98.59          20.92         -143.8          20.65          71.42
    0.5439              -25.32          29.64          32.83          61.28          -14.5          8.595         -98.46          20.97         -143.8          20.69          71.49
    0.5675              -25.32          29.62          32.85          61.29         -14.49          8.603         -98.32          21.02         -143.7          20.74          71.57
    0.5911              -25.33           29.6          32.87           61.3         -14.48          8.613         -98.16          21.08         -143.6          20.79          71.66
    0.6148              -25.33          29.58          32.89          61.31         -14.47          8.623         -97.98          21.15         -143.5          20.85          71.75
    0.6384              -25.34          29.56          32.92          61.32         -14.46          8.634         -97.78          21.22         -143.4          20.91          71.87
    0.6621              -25.34          29.53          32.95          61.33         -14.45          8.647         -97.55          21.31         -143.3          20.98          71.99
    0.6857              -25.35           29.5          32.98          61.34         -14.44          8.662          -97.3           21.4         -143.2          21.06          72.14
    0.7094              -25.35          29.46          33.02          61.36         -14.42          8.679          -97.0          21.51         -143.0          21.15           72.3
     0.733              -25.36          29.42          33.06          61.37         -14.41          8.698         -96.66          21.64         -142.8          21.26          72.49
    0.7567              -25.37          29.37          33.11          61.39         -14.39           8.72         -96.27          21.78         -142.6          21.38           72.7
    0.7803              -25.38          29.32          33.17          61.42         -14.36          8.746         -95.82          21.95         -142.4          21.52          72.95
     0.804              -25.39          29.25          33.24          61.44         -14.34          8.777         -95.29          22.15         -142.1          21.69          73.25
    0.8276              -25.41          29.17          33.32          61.47         -14.31          8.812         -94.66          22.38         -141.8          21.89           73.6
    0.8513              -25.42          29.08          33.41          61.51         -14.27          8.855         -93.92          22.66         -141.4          22.12          74.01
    0.8749              -25.44          28.97          33.53          61.56         -14.23          8.906         -93.03          22.99         -141.0           22.4           74.5
